<svg width="210" height="209" viewBox="0 0 210 209" fill="none" xmlns="http://www.w3.org/2000/svg">
<path d="M136.802 144.676C119.778 161.828 92.815 162.796 74.6954 146.69C56.6522 130.634 55.0977 103.391 71.255 85.399L104.691 52.0396L138.305 85.399C153.52 102.576 153.035 128.341 136.802 144.702V144.676ZM104.691 79.3082L86.6732 97.2494C70.7453 116.006 86.2145 143.275 110.884 137.515C129.08 133.285 134.89 111.317 123.116 97.5043C117.841 91.3115 110.705 85.8068 105.277 79.665L104.665 79.3082H104.691Z" fill="white"/>
<path d="M208.872 87.5398L190.957 105.405L209.28 123.524L195.697 137.108L163.713 104.946L195.671 72.9116L209.305 86.2656C209.841 86.8772 209.484 87.2085 208.872 87.5143V87.5398Z" fill="white"/>
<path d="M0.611378 123.83L0.815256 122.964L18.6545 105.15L0.0507154 86.5461L13.8889 73.1921L45.8977 105.379L14.3986 136.853C14.1692 136.955 14.0163 136.853 13.8125 136.751C13.6086 136.649 11.0601 134.253 10.6269 133.82C7.74709 131.119 3.54212 127.194 1.17204 124.136C-1.19803 121.078 0.789771 123.907 0.611378 123.83Z" fill="white"/>
<path d="M98.0903 11.5701C98.7529 12.2072 99.4155 12.8698 100.104 13.5069C101.658 14.985 103.111 16.616 104.691 18.0941L122.785 0.254847L136.623 13.6343L104.742 45.0824L72.733 13.6343L86.6222 0C90.1646 4.10304 94.2421 7.77283 98.1158 11.5446L98.0903 11.5701Z" fill="white"/>
<path d="M104.436 163.917L136.394 195.62L122.76 209L104.895 191.186L86.8261 208.745L72.937 195.366L104.436 163.917Z" fill="white"/>
<path d="M163.662 17.8647V44.6237H190.421V63.4824H145.059V17.8647H163.662Z" fill="white"/>
<path d="M63.7624 17.8647V63.4824H18.9094V44.6237H45.1586V17.8647H63.7624Z" fill="white"/>
<path d="M190.421 145.798V164.402H163.662V191.161H145.059V145.798H190.421Z" fill="white"/>
<path d="M63.5076 145.798V191.161H45.1586V164.402H19.1642V145.798H63.5076Z" fill="white"/>
</svg>
